<?xml version="1.0" encoding="utf-8"?>
<svg version="1.1" xmlns="http://www.w3.org/2000/svg" width="704" height="701">
  <path d="M0 0 C13.15891055 9.02980708 24.42791113 20.48822928 35.65209961 31.74829102 C37.65561361 33.75718489 39.66444527 35.76065014 41.67382812 37.76367188 C47.32326375 43.41048103 52.94237849 49.0285241 58.11450195 55.12280273 C60.10856314 57.43917286 62.27610673 59.56026757 64.46484375 61.69140625 C67.31347382 64.50597199 70.07013687 67.31875877 72.65234375 70.37890625 C76.77689802 75.21221448 81.33829032 79.61596486 85.87182617 84.0612793 C88.94606587 87.09387239 91.90997462 90.1563148 94.71875 93.4375 C99.03315045 98.43842017 103.70308789 103.07961906 108.38012695 107.73706055 C109.89976043 109.25133205 111.41396892 110.77088055 112.92773438 112.29101562 C117.67237173 117.03894934 122.4658551 121.67608195 127.56762695 126.04370117 C131.0943203 129.10658283 134.45321188 132.35053869 137.83984375 135.56640625 C146.56499127 143.80724294 155.34279221 151.82406499 164.6796875 159.375 C167.52015737 161.73741043 170.24660274 164.18969653 172.96484375 166.69140625 C182.65899437 175.59028001 193.08942994 183.6102452 203.46484375 191.69140625 C204.49222656 192.49320313 205.51960937 193.295 206.578125 194.12109375 C221.7984233 205.91827541 237.30489858 217.21323645 253.46484375 227.69140625 C254.5930957 228.42955566 254.5930957 228.42955566 255.74414062 229.18261719 C281.91535354 246.27061814 310.02126355 261.10711271 339.46484375 271.69140625 C337.6945073 282.02634337 326.49896496 291.30244806 319.46484375 298.69140625 C318.84351563 299.3771875 318.2221875 300.06296875 317.58203125 300.76953125 C299.30746981 320.27332328 273.03616103 334.32357787 248.58984375 344.37890625 C247.75163086 344.73033691 246.91341797 345.08176758 246.04980469 345.44384766 C244.86692871 345.91250244 244.86692871 345.91250244 243.66015625 346.390625 C242.96937988 346.66737061 242.27860352 346.94411621 241.56689453 347.22924805 C237.37344341 348.15122284 233.47756001 346.41821751 229.61572266 344.84057617 C228.67386612 344.45848495 227.73200958 344.07639374 226.76161194 343.682724 C225.24186012 343.05860374 225.24186012 343.05860374 223.69140625 342.421875 C222.62873032 341.9898024 221.56605438 341.5577298 220.47117615 341.11256409 C218.19337292 340.18622411 215.9163117 339.25805791 213.6399231 338.32824707 C207.68101427 335.89548742 201.71542514 333.47922726 195.75 331.0625 C194.57870041 330.58773224 193.40740082 330.11296448 192.2006073 329.62380981 C175.113489 322.70503986 157.91508861 316.09415563 140.64453125 309.6484375 C33.52835468 269.63299807 33.52835468 269.63299807 18.4453125 240.73828125 C15.93914168 234.92488045 15.2298725 229.22067963 17.34375 223.1796875 C21.62965388 213.94306957 28.28729181 207.39901651 36.40234375 201.44140625 C37.13525635 200.89057373 37.86816895 200.33974121 38.62329102 199.7722168 C42.32020293 196.99883981 46.04551507 194.26518047 49.77734375 191.5390625 C66.50301356 179.84819072 66.50301356 179.84819072 76.46484375 162.69140625 C77.67916206 154.06880492 77.20542981 146.75754201 72.48828125 139.31640625 C65.76228414 130.59078838 56.43411756 119.81585026 44.9765625 118.19921875 C41.41415839 118.13034305 38.00619019 118.31439688 34.46484375 118.69140625 C33.6965625 118.75457031 32.92828125 118.81773437 32.13671875 118.8828125 C10.91234245 122.08267076 -8.52229411 140.72588557 -24.515625 153.79882812 C-28.87630343 157.36018834 -33.27936885 160.85885865 -37.72265625 164.31640625 C-42.13548961 167.75135031 -46.4291153 171.28562079 -50.66015625 174.94140625 C-58.48267043 181.66750006 -66.80222693 187.73274842 -75.08984375 193.86767578 C-77.35798294 195.55926921 -79.60663317 197.27271892 -81.84765625 199 C-121.37099339 229.39560069 -165.88308561 244.88947976 -215.60546875 244.82421875 C-217.45360324 244.82489543 -219.30173764 244.82586846 -221.14987183 244.82711792 C-225.02114714 244.82858587 -228.89239928 244.82647493 -232.76367188 244.82177734 C-237.61164376 244.81616777 -242.45955964 244.81939613 -247.30752945 244.82522964 C-271.06760779 244.84927975 -294.78980682 244.54420463 -318.53515625 243.69140625 C-311.38067666 236.50843471 -304.00099862 229.60666608 -296.09765625 223.25390625 C-290.6781422 218.89166734 -285.61031953 214.21174771 -280.52734375 209.46875 C-278.21275363 207.31062906 -275.86619879 205.19966815 -273.47265625 203.12890625 C-268.5878958 198.89954343 -263.85252406 194.50683907 -259.09960938 190.13085938 C-256.58153873 187.81398288 -254.05810188 185.50297106 -251.53515625 183.19140625 C-250.53124327 182.27084067 -249.52733702 181.35026775 -248.5234375 180.4296875 C-246.56418764 178.63354918 -244.60292373 176.83969044 -242.640625 175.046875 C-226.89779548 160.76268671 -226.89779548 160.76268671 -211.7578125 145.8515625 C-209.98273157 144.12639597 -208.19214281 142.55103109 -206.3046875 140.95654297 C-199.55786899 135.06513475 -193.32488381 128.62468804 -187 122.2890625 C-185.59345321 120.88319059 -184.1867581 119.47746705 -182.77992249 118.07188416 C-179.84245861 115.13588857 -176.90679543 112.19810756 -173.97241211 109.2590332 C-170.22813565 105.50906002 -166.47938691 101.76359494 -162.72926998 98.01946354 C-159.82682185 95.12064453 -156.9267789 92.2194287 -154.02743721 89.31750298 C-152.6467973 87.9362003 -151.26542613 86.5556281 -149.88328362 85.17582893 C-140.63876118 75.97793968 -140.63876118 75.97793968 -131.91136169 66.29444885 C-129.82594371 63.86529565 -127.58176644 61.60826203 -125.3203125 59.34375 C-124.86087753 58.88335831 -124.40144257 58.42296661 -123.92808533 57.94862366 C-122.96898889 56.98885546 -122.0086639 56.03031338 -121.04711914 55.07299805 C-119.5999124 53.63115404 -118.15813599 52.18403509 -116.71679688 50.73632812 C-112.02523085 46.04179762 -107.26748213 41.48857669 -102.22680664 37.16918945 C-99.9349889 35.16711516 -97.83078358 33.00944939 -95.72265625 30.81640625 C-90.63321792 25.68048903 -85.20135453 21.17217621 -79.53515625 16.69140625 C-78.44034756 15.7955631 -77.34663764 14.89837583 -76.25390625 14 C-53.3365016 -4.66764701 -27.56461589 -17.37485267 0 0 Z " fill="#F9A100" transform="translate(346.53515625,177.30859375)"/>
  <path d="M 0 0 C 19.462 16.483 19.462 16.483 21.258 28.984 C 21.68 39.246 19.742 45.606 13.137 53.355 C 5.311 61.83 -3.846 68.317 -13.265 74.889 C -16.729 77.349 -20.03 79.995 -23.305 82.699 C -24.973 84.069 -26.709 85.357 -28.457 86.625 C -34.089 92.007 -39.306 99.381 -39.582 107.375 C -39.4 116.769 -35.103 123.326 -28.73 129.945 C -19.897 138.442 -9.926 144.406 0.73 150.313 C 1.562 150.777 2.393 151.241 3.25 151.719 C 30.12 166.599 58.859 176.964 87.598 187.563 C 118.619 199.004 149.129 211.8 179.73 224.313 C 179.73 224.973 179.73 225.633 179.73 226.313 C 158.429 233.47 136.923 237.912 114.73 241.313 C 113.432 241.517 112.134 241.722 110.797 241.934 C 88.977 245.128 66.969 245.667 44.956 245.628 C 42.11 245.624 39.264 245.63 36.417 245.649 C 8.039 245.828 -19.889 243.854 -47.895 239.063 C -48.789 238.913 -49.683 238.764 -50.604 238.61 C -67.317 235.815 -83.836 232.465 -100.27 228.313 C -101.31 228.05 -102.35 227.788 -103.422 227.518 C -133.135 219.893 -162.217 209.686 -190.27 197.313 C -191.959 196.57 -191.959 196.57 -193.682 195.813 C -220.496 183.942 -245.457 169.362 -270.27 153.813 C -273.302 151.915 -276.334 150.019 -279.368 148.125 C -281.244 146.953 -283.118 145.781 -284.991 144.606 C -298.622 136.09 -309.644 127.444 -325.458 123.863 C -325.458 123.533 -328.72 122.641 -328.72 122.301 C -303.97 121.971 -282.706 122.203 -257.206 121.863 C -257.206 121.533 -253.27 121.653 -253.27 121.313 C -251.582 121.148 -251.582 121.148 -249.859 120.98 C -203.042 116.237 -164.352 95.532 -127.63 67.134 C -125.639 65.598 -123.642 64.072 -121.637 62.555 C -114.829 57.385 -108.219 52.011 -101.638 46.556 C -96.656 42.433 -91.615 38.4 -86.51 34.43 C -82.712 31.469 -78.976 28.44 -75.26 25.376 C -23.491 -17.211 -23.491 -17.211 0 0 Z" fill="#514632" transform="translate(403.26953125,299.6875)"/>
  <path d="M0 0 C34.48890635 -0.94346552 56.64294247 13.65486668 82.52001953 34.60888672 C87.46085339 38.60194641 92.50925735 42.43105763 97.60498047 46.22363281 C103.20882045 50.39599153 108.76345343 54.63012124 114.3125 58.875 C123.3517334 65.77896851 132.47716347 72.55667878 141.65283203 79.27783203 C144.83072873 81.60952366 148.00002108 83.95278021 151.16967773 86.2956543 C154.34360077 88.63926015 157.52294975 90.97543475 160.703125 93.31054688 C162.19197611 94.4056627 163.67906973 95.50317351 165.1640625 96.60351562 C183.51948205 110.20074985 202.62657721 123.58563921 223 134 C224.21115479 134.6199585 224.21115479 134.6199585 225.44677734 135.25244141 C246.2761584 145.79293659 266.50646866 151.15408387 289.67626953 153.91064453 C291.03534424 154.08055908 291.03534424 154.08055908 292.421875 154.25390625 C293.23237305 154.35002197 294.04287109 154.4461377 294.87792969 154.54516602 C297 155 297 155 300 157 C297.94549776 162.4579201 295.42718566 166.34943539 291.5625 170.6875 C290.76525513 171.59423462 290.76525513 171.59423462 289.9519043 172.51928711 C288.31652452 174.36068758 286.66318793 176.18370271 285 178 C284.51853516 178.52819336 284.03707031 179.05638672 283.54101562 179.60058594 C263.6828868 201.10663479 236.99936057 216.63346198 210.125 227.6875 C209.28678711 228.03893066 208.44857422 228.39036133 207.58496094 228.75244141 C206.79637695 229.06487793 206.00779297 229.37731445 205.1953125 229.69921875 C204.50453613 229.97596436 203.81375977 230.25270996 203.10205078 230.5378418 C198.90859966 231.45981659 195.01271626 229.72681126 191.15087891 228.14916992 C189.7380941 227.5760331 189.7380941 227.5760331 188.29676819 226.99131775 C186.77701637 226.36719749 186.77701637 226.36719749 185.2265625 225.73046875 C184.16388657 225.29839615 183.10121063 224.86632355 182.0063324 224.42115784 C179.72852917 223.49481786 177.45146795 222.56665166 175.17507935 221.63684082 C169.21617052 219.20408117 163.25058139 216.78782101 157.28515625 214.37109375 C156.11385666 213.89632599 154.94255707 213.42155823 153.73576355 212.93240356 C136.64864525 206.01363361 119.45024486 199.40274938 102.1796875 192.95703125 C-4.93648907 152.94159182 -4.93648907 152.94159182 -20.01953125 124.046875 C-22.52570207 118.2334742 -23.23497125 112.52927338 -21.12109375 106.48828125 C-16.83518987 97.25166332 -10.17755194 90.70761026 -2.0625 84.75 C-1.3295874 84.19916748 -0.5966748 83.64833496 0.15844727 83.08081055 C3.85535918 80.30743356 7.58067132 77.57377422 11.3125 74.84765625 C28.03816981 63.15678447 28.03816981 63.15678447 38 46 C39.21431831 37.37739867 38.74058606 30.06613576 34.0234375 22.625 C27.35188133 13.97000821 18.19097162 3.81167603 7.0859375 1.35546875 C4.70148327 1.10358978 2.39580041 0.96362125 0 1 C0 0.67 0 0.34 0 0 Z " fill="#DF7200" transform="translate(385,294)"/>
  <path d="M0 0 C14.52 0 29.04 0 44 0 C44 14.52 44 29.04 44 44 C29.48 44 14.96 44 0 44 C0 29.48 0 14.96 0 0 Z " fill="#E27700" transform="translate(385,126)"/>
  <path d="M0 0 C12.54 0 25.08 0 38 0 C38 12.87 38 25.74 38 39 C25.46 39 12.92 39 0 39 C0 26.13 0 13.26 0 0 Z " fill="#E37700" transform="translate(453,228)"/>
  <path d="M0 0 C11.88 0 23.76 0 36 0 C36 11.88 36 23.76 36 36 C24.12 36 12.24 36 0 36 C0 24.12 0 12.24 0 0 Z " fill="#E07600" transform="translate(448,169)"/>
  <path d="M 520.986 106.331 C 530.886 106.331 540.786 106.331 550.986 106.331 C 550.986 116.231 550.986 126.131 550.986 136.331 C 546.222 136.352 541.457 136.372 536.548 136.393 C 535.044 136.403 533.539 136.412 531.988 136.421 C 530.813 136.424 529.638 136.426 528.427 136.429 C 527.218 136.434 526.008 136.439 524.762 136.445 C 521.986 136.331 521.986 136.331 520.986 135.331 C 520.898 133.185 520.879 131.037 520.888 128.89 C 520.891 127.715 520.893 126.539 520.896 125.329 C 520.905 123.824 520.914 122.319 520.923 120.768 C 520.944 116.004 520.965 111.24 520.986 106.331 Z" fill="#DF7200"/>
  <path d="M0 0 C9.9 0 19.8 0 30 0 C30 9.57 30 19.14 30 29 C20.1 29 10.2 29 0 29 C0 19.43 0 9.86 0 0 Z " fill="#E47A00" transform="translate(424,74)"/>
  <path d="M0 0 C7.92 0 15.84 0 24 0 C24 7.59 24 15.18 24 23 C16.08 23 8.16 23 0 23 C0 15.41 0 7.82 0 0 Z " fill="#E27901" transform="translate(530,228)"/>
  <path d="M 466.655 115.324 C 474.575 115.324 482.495 115.324 490.655 115.324 C 490.655 122.914 490.655 130.504 490.655 138.324 C 482.735 138.324 474.815 138.324 466.655 138.324 C 466.655 130.734 466.655 123.144 466.655 115.324 Z" fill="#DE7200"/>
  <path d="M0 0 C6.93 0 13.86 0 21 0 C21 7.59 21 15.18 21 23 C14.07 23 7.14 23 0 23 C0 15.41 0 7.82 0 0 Z " fill="#DF7801" transform="translate(557,174)"/>
  <path d="M0 0 C6.93 0 13.86 0 21 0 C21 6.93 21 13.86 21 21 C14.07 21 7.14 21 0 21 C0 14.07 0 7.14 0 0 Z " fill="#E17B00" transform="translate(510,173)"/>
  <path d="M0 0 C9.9 0 19.8 0 30 0 C30 9.9 30 19.8 30 30 C25.235625 30.020625 20.47125 30.04125 15.5625 30.0625 C14.0576001 30.071604 12.5527002 30.08070801 11.00219727 30.09008789 C9.82713623 30.09258545 8.6520752 30.09508301 7.44140625 30.09765625 C6.23170166 30.10289307 5.02199707 30.10812988 3.77563477 30.11352539 C1 30 1 30 0 29 C-0.08775605 26.85441173 -0.10695219 24.70595579 -0.09765625 22.55859375 C-0.09515869 21.38353271 -0.09266113 20.20847168 -0.09008789 18.99780273 C-0.08098389 17.49290283 -0.07187988 15.98800293 -0.0625 14.4375 C-0.041875 9.673125 -0.02125 4.90875 0 0 Z M3 3 C3 10.92 3 18.84 3 27 C10.92 27 18.84 27 27 27 C27 19.08 27 11.16 27 3 C19.08 3 11.16 3 3 3 Z " fill="#DD7601" transform="translate(519,106)"/>
  <path d="M0 0 C9.9 0 19.8 0 30 0 C30 0.33 30 0.66 30 1 C20.76 1 11.52 1 2 1 C2 9.91 2 18.82 2 28 C11.24 28 20.48 28 30 28 C30 28.66 30 29.32 30 30 C25.8882744 30.02465746 21.77657722 30.04283959 17.66479492 30.05493164 C16.26504772 30.0599708 14.8653058 30.06680216 13.46557617 30.07543945 C11.45754223 30.0875232 9.44947043 30.09269807 7.44140625 30.09765625 C6.23170166 30.10289307 5.02199707 30.10812988 3.77563477 30.11352539 C1 30 1 30 0 29 C-0.08775605 26.85441173 -0.10695219 24.70595579 -0.09765625 22.55859375 C-0.09515869 21.38353271 -0.09266113 20.20847168 -0.09008789 18.99780273 C-0.08098389 17.49290283 -0.07187988 15.98800293 -0.0625 14.4375 C-0.041875 9.673125 -0.02125 4.90875 0 0 Z " fill="#C17109" transform="translate(519,106)"/>
  <path d="M0 0 C7.92 0 15.84 0 24 0 C24 7.59 24 15.18 24 23 C16.08 23 8.16 23 0 23 C0 15.41 0 7.82 0 0 Z M2 2 C2 8.6 2 15.2 2 22 C8.93 22 15.86 22 23 22 C23 15.4 23 8.8 23 2 C16.07 2 9.14 2 2 2 Z " fill="#F79700" transform="translate(465,114)"/>
  <path d="M -2.672 -5.344 C 11.13 -3.686 36.683 5.725 47.755 10.593 C 44.577 11.652 39.778 10.82 31.52 7.427 C 25.665 5.021 24.484 5.918 22.287 6.004 C 21.957 6.664 24.495 10.766 24.155 11.446 C 23.327 10.812 19.345 7.453 18.492 6.799 C 14.922 4.419 11.336 2.142 7.125 1.75 C 6.437 1.673 7.756 1.738 3.462 1.516 C 1.776 1.429 1.681 1.163 0 1 C -0.286 -2.628 -2.672 -5.004 -2.672 -5.344 Z" fill="#C45800" transform="translate(385,294)"/>
  <path d="M0 0 C8.49308133 1.32704396 16.27776154 5.40859131 24 9 C20.45266454 10.18244515 19.73571817 9.7709032 16.3671875 8.41796875 C15.47902344 8.06283203 14.59085938 7.70769531 13.67578125 7.34179688 C12.28939453 6.77041992 12.28939453 6.77041992 10.875 6.1875 C9.47701172 5.63352539 9.47701172 5.63352539 8.05078125 5.06835938 C1.13173922 2.26347843 1.13173922 2.26347843 0 0 Z " fill="#E97C04" transform="translate(513,495)"/>
  <path d="M0 0 C2.97 0.33 5.94 0.66 9 1 C9 1.66 9 2.32 9 3 C12.63 2.01 16.26 1.02 20 0 C18.49119584 3.01760833 16.13550563 3.37710034 13.0546875 4.45703125 C8.08130365 5.77129048 4.32354341 3.31259299 0 1 C0 0.67 0 0.34 0 0 Z " fill="#EB8803" transform="translate(575,520)"/>
  <path d="M0 0 C4.875 4.75 4.875 4.75 6 7 C6.66 6.67 7.32 6.34 8 6 C9.125 12.625 9.125 12.625 8 16 C6.85121668 13.89739659 5.70588808 11.79303461 4.5625 9.6875 C4.23701172 9.09259766 3.91152344 8.49769531 3.57617188 7.88476562 C2.16262616 5.27626374 0.94051367 2.82154101 0 0 Z " fill="#EC7F02" transform="translate(416,311)"/>
  <path d="M 378.151 290.335 C 380.186 288.923 372.633 294.898 369.576 297.629 C 366.519 300.36 355.515 309.468 349.415 314.805 C 343.316 320.143 338.669 323.635 331.573 330.044 C 324.477 336.453 320.353 338.564 314.309 344.509 C 309.453 347.469 305.464 349.927 302.192 351.983 C 298.92 354.039 296.366 355.692 294.377 357.039 C 292.39 358.386 290.969 359.428 289.965 360.262 C 288.962 361.096 288.374 361.722 288.055 362.237 C 287.526 362.394 286.777 362.844 285.921 363.436 C 285.063 364.029 284.097 364.765 283.135 365.492 C 282.174 366.22 281.217 366.94 280.375 367.502 C 279.534 368.064 278.808 368.467 278.312 368.56 C 278.227 368.725 278.036 368.867 277.79 368.997 C 277.543 369.128 277.243 369.247 276.943 369.366 C 276.643 369.486 276.341 369.606 276.095 369.739 C 275.847 369.872 275.653 370.017 275.566 370.187 C 274.909 370.344 274.28 370.618 273.679 370.922 C 273.079 371.226 272.506 371.559 271.965 371.831 C 271.423 372.104 270.913 372.316 270.436 372.378 C 269.958 372.441 269.514 372.354 269.105 372.027 C 269.916 371.212 276.05 366.364 284.954 359.422 C 293.859 352.479 305.535 343.443 317.436 334.25 C 329.336 325.058 343.804 313.457 353.476 305.74 C 364.014 297.333 374.937 291.553 378.151 290.335 Z" fill="#32313B" style=""/>
  <path d="M0 0 C1.4540625 0.0309375 1.4540625 0.0309375 2.9375 0.0625 C-0.18871626 3.45667765 -2.62791027 5.6687718 -7.0625 7.0625 C-6.5675 6.629375 -6.0725 6.19625 -5.5625 5.75 C-3.73031808 4.06509517 -3.73031808 4.06509517 -4.0625 1.0625 C-3.0625 0.0625 -3.0625 0.0625 0 0 Z " fill="#EA8E02" transform="translate(647.0625,488.9375)"/>
  <path d="M -14.054 -14.197 C -11.017 -13.389 2.338 1.911 3.5 2.875 C 4.475 3.676 4.475 3.676 5.469 4.492 C 5.974 4.99 6.479 5.487 7 6 C 7 6.66 17.038 15.494 17.038 16.174 C 15.718 16.174 9.379 15.17 8.019 15.17 C 6.944 12.518 -13.148 -11.481 -14.054 -14.197 Z" fill="#F19202" transform="translate(430,262)"/>
  <path d="M -4.589 -5.593 C -2.609 -3.943 11.991 10.757 14.031 12.457 C 13.041 12.457 5.884 8.442 4.864 8.442 C 3.524 8.748 0.325 5.635 -1 6 C -1.33 5.01 -1.66 4.02 -2 3 C -1.34 2.01 -5.269 -4.573 -4.589 -5.593 Z" fill="#F09002" transform="translate(380,210)"/>
  <path d="M0 0 C-1 2 -1 2 -4.3125 3.1875 C-7.57562063 3.90649268 -8.99282882 4.20286847 -12 3 C-4.71428571 -0.42857143 -4.71428571 -0.42857143 0 0 Z " fill="#645230" transform="translate(582,525)"/>
  <path d="M0 0 C4.455 1.98 4.455 1.98 9 4 C9 4.33 9 4.66 9 5 C7.02 5 5.04 5 3 5 C3 4.34 3 3.68 3 3 C2.01 2.67 1.02 2.34 0 2 C0 1.34 0 0.68 0 0 Z " fill="#E3AD07" transform="translate(638,428)"/>
  <path d="M 488.077 84.084 C 491.765 84.084 495.453 84.084 499.253 84.084 C 499.253 87.991 499.253 91.897 499.253 95.922 C 495.565 95.922 491.877 95.922 488.077 95.922 C 488.077 92.015 488.077 88.109 488.077 84.084 Z" fill="#E07600" style="stroke-width: 1;"/>
  <path d="M 557.472 144.46 C 560.361 144.46 563.249 144.46 566.225 144.46 C 566.225 147.676 566.225 150.892 566.225 154.206 C 563.337 154.206 560.448 154.206 557.472 154.206 C 557.472 150.99 557.472 147.773 557.472 144.46 Z" fill="#E17B00" style="stroke-width: 1;"/>
  <path d="M 549.529 85.545 C 552.09 85.545 554.651 85.545 557.29 85.545 C 557.29 88.433 557.29 91.322 557.29 94.298 C 554.729 94.298 552.168 94.298 549.529 94.298 C 549.529 91.409 549.529 88.521 549.529 85.545 Z" fill="#E17B00" style="stroke-width: 1;"/>
  <path d="M 466.782 46.487 C 469.562 46.487 472.341 46.487 475.205 46.487 C 475.205 49.812 475.205 53.138 475.205 56.564 C 472.425 56.564 469.646 56.564 466.782 56.564 C 466.782 53.238 466.782 49.913 466.782 46.487 Z" fill="#E17B00" style="stroke-width: 1;"/>
  <path d="M 539.268 36.558 C 542.266 36.558 545.264 36.558 548.352 36.558 C 548.352 39.446 548.352 42.335 548.352 45.311 C 545.355 45.311 542.357 45.311 539.268 45.311 C 539.268 42.422 539.268 39.534 539.268 36.558 Z" fill="#E17B00" style="stroke-width: 1;"/>
  <path d="M 518.747 58.982 C 523.493 58.982 528.238 58.982 533.127 58.982 C 533.127 63.837 533.127 68.692 533.127 73.693 C 528.381 73.693 523.637 73.693 518.747 73.693 C 518.747 68.838 518.747 63.984 518.747 58.982 Z" fill="#E17B00" style="stroke-width: 1;"/>
</svg>